<svg width="674" height="758" viewBox="0 0 674 758" fill="none" xmlns="http://www.w3.org/2000/svg">
<path d="M362.915 424.544C363.011 424.455 362.989 424.337 362.915 424.544V424.544Z" fill="#98E0FF"/>
<path d="M406.856 437.218C406.856 437.218 406.813 437.318 406.781 437.364C406.761 437.368 406.755 437.389 406.737 437.403L406.844 437.21L406.856 437.218Z" fill="#98E0FF"/>
<path d="M348.232 427.026C348.296 426.984 348.361 426.952 348.434 426.908C348.329 427.059 348.254 427.093 348.232 427.026Z" fill="#98E0FF"/>
<path d="M191.17 550.041C191.17 550.041 191.103 550.063 191.066 550.08C191.134 550.007 191.163 550.001 191.17 550.041Z" fill="#98E0FF"/>
<path d="M337.196 387.177C337.196 387.177 337.191 387.147 337.189 387.137C337.235 387.17 337.269 387.184 337.29 387.19C337.28 387.192 337.247 387.178 337.196 387.177Z" fill="#98E0FF"/>
<path d="M408.373 413.557C408.139 414.727 405.546 412.373 405.137 414.652C404.817 416.418 403.53 418.959 401.97 418.144C401.206 417.744 401.297 416.508 401.509 411.632C401.573 410.248 402.774 410.65 404.308 410.758C406.591 410.232 408.705 411.911 408.373 413.557Z" fill="#98E0FF"/>
<path d="M361.581 392.171C362.204 392.749 362.481 393.715 362.91 394.511C362.44 395.003 361.433 394.607 360.792 395.16C357.901 397.657 351.854 404.934 357.297 392.817C358.224 390.758 359.741 390.493 361.571 392.173L361.581 392.171Z" fill="#98E0FF"/>
<path d="M361.472 401.704C364.454 401.783 365.242 398.621 365.388 395.505C365.445 394.254 364.372 394.388 363.525 394.369C365.216 390.139 368.144 396.133 370.153 392.922C370.421 392.497 371.499 391.326 372.216 391.409C375.037 391.72 360.903 404.226 363.477 407.489C364.02 408.183 359.86 412.699 359.146 410.501C357.401 405.146 361.553 405.175 361.249 401.877C360.064 402.122 356.933 402.904 357.855 401.263C358.813 399.544 359.832 397.875 361.879 397.229C362.448 398.793 361.826 400.237 361.472 401.704Z" fill="#98E0FF"/>
<path d="M337.201 387.034C337.201 387.034 337.192 387.096 337.187 387.127C337.118 387.079 337.143 387.054 337.201 387.034Z" fill="#98E0FF"/>
<path d="M348.764 429.623C347.518 429.697 348.291 427.686 348.457 427.087C349.474 426.984 350.485 426.841 351.496 426.81C352.536 426.773 352.004 429.441 348.766 429.633L348.764 429.623Z" fill="#98E0FF"/>
<path d="M348.445 427.079C348.396 427.088 348.337 427.099 348.286 427.098C348.481 426.829 348.5 426.876 348.445 427.079Z" fill="#98E0FF"/>
<path d="M357.516 422.8C356.494 424.053 355.756 425.365 355.265 424.621C352.523 420.434 359.788 420.029 357.516 422.8Z" fill="#98E0FF"/>
<path d="M397.601 437.242C396.727 440.206 395.089 441.205 394.443 441.119C392.822 440.925 395.047 437.279 396.579 436.706C396.704 436.724 397.72 436.834 397.601 437.242Z" fill="#98E0FF"/>
<path d="M383.023 424.399C381.483 426.945 378.857 424.068 382.139 422.944C383.201 423.086 383.92 422.905 383.023 424.399Z" fill="#98E0FF"/>
<path d="M351.504 379.101C351.769 378.209 354.173 380.873 351.269 382.396C350.559 382.128 350.558 382.342 351.504 379.101Z" fill="#98E0FF"/>
<path d="M357.078 411.202C356.473 413.578 357.859 413.153 353.819 413.237C354.367 412.283 354.85 411.301 355.491 410.412C355.668 410.157 357.462 409.679 357.078 411.202Z" fill="#98E0FF"/>
<path d="M179.676 551.782C179.676 551.782 178.959 551.414 178.719 551.102C175.584 546.986 180.004 548.551 177.999 545.287C176.005 542.031 177.948 540.58 181.689 541.314C181.27 542.813 181.618 541.987 180.452 544.466C183.454 545.384 189.408 539.943 191.252 537.393C193.088 534.854 194.249 539.064 196.38 539.328C196.889 539.388 196.876 539.929 196.293 540.248C194.851 541.038 194.105 543.42 191.713 542.116C190.629 541.52 189.298 541.914 188.628 542.869C187.338 544.72 185.128 545.812 184.485 548.205C183.856 550.566 181.02 550.227 179.678 551.792L179.676 551.782Z" fill="#98E0FF"/>
<path d="M191.197 549.914L191.063 550.07C191.057 549.98 191.064 549.907 191.07 549.825C191.116 549.857 191.151 549.881 191.197 549.914Z" fill="#98E0FF"/>
<path d="M192.554 547.198C193.797 548.222 191.196 548.115 191.07 549.825C187.762 547.671 191.909 546.664 192.554 547.198Z" fill="#98E0FF"/>
<path d="M572.115 179.544C572.123 179.471 572.122 179.41 572.129 179.338C572.309 179.377 572.26 179.446 572.115 179.544Z" fill="#98E0FF"/>
<path d="M547.849 183.258C547.849 183.258 547.835 183.18 547.829 183.15C547.892 183.159 547.889 183.2 547.849 183.258Z" fill="#98E0FF"/>
<path d="M534.236 152.17C534.236 152.17 534.333 152.142 534.37 152.125C534.345 152.262 534.294 152.261 534.236 152.17Z" fill="#98E0FF"/>
<path d="M541.213 28.9213C541.213 28.9213 541.245 28.8749 541.263 28.8614C541.252 28.9142 541.234 28.9276 541.213 28.9213Z" fill="#98E0FF"/>
<path d="M488.247 14.1753C491.369 17.2064 494.702 13.7351 496.442 14.4153C499.888 15.7615 503.722 12.9209 506.975 15.613C507.634 16.1642 510.929 14.4379 512.165 14.305C514.527 14.0489 511.79 15.6537 513.051 17.0609C513.93 18.0397 514.987 17.0856 515.875 16.2128C518.951 13.2253 519.134 15.2961 521.508 17.4567C523.481 19.2532 522.511 14.9168 524.005 15.2552C525.023 15.4871 524.814 19.6006 528.013 17.1802C530.873 15.0147 534.36 21.4045 536.11 17.9972C536.11 17.9972 536.552 18.1404 536.693 18.2978C537.696 19.4573 536.94 21.3935 538.826 22.3215C540.399 23.0929 539.857 25.0918 540.196 26.565C540.261 26.8683 540.998 28.8586 541.203 28.923C539.865 30.5076 541.109 34.3369 538.436 32.5456C534.84 30.1494 535.344 34.9973 532.377 33.4322C526.969 30.5722 530.476 28.228 526.721 25.4033C525.204 24.266 525.976 27.1749 525.248 29.4922C524.075 28.9633 524.111 28.1538 522.667 26.4138C520.819 24.1879 520.171 25.8201 520.461 27.6985C521.245 32.8005 522.172 34.2685 519.846 34.894C519.371 35.0209 519.142 34.7677 519.089 34.6961C519.115 34.7319 519.159 34.8053 519.233 34.9851C520.195 37.3206 520.162 39.7661 520.507 42.1731C520.558 42.5094 521.43 42.7779 521.518 42.5892C524.148 36.6437 522.742 41.3812 523.425 32.0999C523.477 31.379 524.343 31.618 524.412 31.8291C528.011 43.4227 525.296 34.738 526.767 43.6791C527.046 45.3866 529.228 44.8076 529.444 43.254C529.809 40.7283 527.758 37.828 528.517 35.576C530.936 36.8038 532.857 40.2765 532.901 40.4616C533.771 44.6943 537.36 42.63 538.459 44.6562C537.971 45.1005 538.021 45.5997 538.318 46.115C537.005 49.1279 538.948 46.9559 541.455 56.0645C540.925 56.8925 541.318 57.4919 541.715 58.111C541.316 57.4821 540.941 56.8693 541.455 56.0645C545.148 53.6764 541.704 51.273 544.315 52.2218C549.895 54.2375 545.976 59.5226 548.345 62.4972C548.413 62.6474 548.458 62.7816 548.491 62.9078C548.507 62.2137 548.693 61.0519 549.62 58.7695C549.76 58.419 550.971 57.8129 551.228 58.3353C553.869 63.6998 553.608 63.0459 553.889 63.6963C554.588 65.3073 551.938 64.9855 552.143 66.5642C552.257 67.4175 552.102 68.2994 552.602 69.0929C552.606 69.1126 552.609 69.1322 552.613 69.1519C552.964 67.7263 554.183 66.4378 555.398 66.8576C556.546 67.2488 556.871 72.4544 555.003 72.2956C553.04 72.1233 552.413 70.9059 552.521 69.6564C552.034 70.3852 550.189 70.8624 549.952 68.9947C549.744 67.3454 549.199 65.9704 548.073 64.8029C547.638 65.6543 547.223 66.8376 548.393 69.8673C548.811 70.9398 549.346 71.8183 548.367 72.86C547.617 73.6568 547.131 75.0662 546.271 75.3138C544.716 75.7588 542.753 76.5929 541.558 74.4316C544.763 73.555 544.15 75.0485 544.431 65.0068C542.579 64.154 542.907 61.9904 541.826 60.6825C539.192 67.6145 543.414 68.2506 538.327 70.0686C537.874 69.5917 537.486 69.0219 536.953 68.6613C534.652 67.1277 534.048 72.5325 536.232 72.8068C536.753 72.8748 537.354 72.2678 537.92 71.9718C538.198 72.3279 538.484 72.6723 538.787 72.9935C531.278 77.7105 541.868 77.5362 539.882 84.0659C537.793 82.8597 536.936 84.6313 535.817 85.7491C535.276 84.5057 534.464 83.332 535.382 81.8949C536.167 80.6751 534.817 79.4565 532.963 80.4945C531.976 81.0496 531.136 81.8526 530.181 82.473C529.409 82.9791 528.335 82.2696 528.325 81.3161C528.284 76.2214 529.632 73.009 524.229 70.5649C522.9 69.9626 520.505 72.7857 523.272 73.7471C523.911 73.9664 524.643 73.9657 525.228 74.2762C526.566 74.9885 525.194 75.8271 525.245 76.6106C525.631 81.9272 526.101 82.6142 525.595 83.3565C523.871 85.8953 524.462 89.203 522.561 91.6112C519.77 88.7233 518.019 86.6325 517.185 86.7432C514.619 87.1075 513.821 84.5591 512.015 83.8502C510.975 83.4394 511.364 81.326 509.832 82.1225C506.69 83.7397 510.892 91.8801 506.366 94.5515C505.83 93.5612 505.297 92.5808 504.761 91.5905C503.911 92.2835 503.131 91.7341 502.289 91.521C500.862 91.1602 500.33 93.269 501.366 93.5484C503.611 94.1572 503.331 96.251 504.059 97.7449C501.685 103.085 506.751 99.0246 504.862 106.421C504.535 107.7 504.12 106.647 502.356 106.612C503.299 109.286 504.263 117.344 502.849 121.31C502.587 122.049 504.271 124.548 505.497 118.766C505.925 116.757 504.426 114.153 507.367 112.938C507.724 106.511 507.331 105.017 509.837 104.603C512.055 97.6754 508.297 96.5081 511.5 93.6092C513.57 91.7395 507.155 81.765 516.583 89.3629C517.834 90.3757 516.676 92.5578 518.423 94.2326C519.338 94.0665 520.542 91.9067 521.048 94.6403C521.125 95.0633 523.049 95.6998 523.911 94.6795C524.721 97.9068 524.654 98.7726 525.686 98.5242C525.814 98.501 527.012 96.8707 525.036 94.2719C528.065 92.8174 525.662 92.8472 527.324 86.9453C528.162 83.9475 534.008 86.8702 532.688 90.7382C528.977 101.647 537.671 101.948 529.134 102.736C528.354 102.806 527.654 104.55 528.26 104.806C530.364 105.704 529.294 108.094 530.747 109.324C536.032 113.802 527.803 121.099 533.571 123.142C537.155 124.412 535.047 129.429 536.405 130.189C540.163 132.302 535.834 134.266 537.557 138.212C537.538 138.277 537.527 138.329 537.518 138.392C537.704 137.85 538.077 137.833 539.848 137.339C539.6 139.671 539.043 141.418 537.27 139.545C537.287 139.471 537.296 139.408 537.315 139.344C537.147 139.984 536.928 140.237 535.186 144.466C533.491 148.565 533.921 151.719 534.217 152.173C533.247 152.542 532.184 152.786 531.363 153.362C530.001 154.311 531.716 155.697 531.089 156.888C530.285 158.396 528.122 158.351 528.162 156.332C528.18 155.312 528.889 154.289 528.236 153.269C525.231 156.589 526.451 162.019 521.973 172.233C521.801 172.63 522.478 173.391 522.77 173.989C520.901 175.06 520.771 177.645 521.34 177.704C522.202 177.802 523.64 175.874 522.77 173.989C524.818 173.515 524.728 169.883 526.361 170.481C526.482 170.53 526.645 170.816 526.604 170.925C524.288 177.148 525.972 181.549 523.5 185.737C523.057 186.489 524.056 187.679 524.877 187.5C532.963 185.686 530.416 183.638 533.448 182.925C534.092 182.778 534.74 180.973 534.968 181.054C536.32 181.56 535.275 185.714 533.999 189.543C534.866 189.112 536.193 189.816 536.68 188.467C537.216 186.998 540.503 189.43 540.985 190.46C541.248 191.012 541.261 192.036 541.594 192.138C542.732 192.47 543.05 191.478 543.381 190.615C545.368 185.325 547.575 183.653 547.835 183.24C548.157 184.9 548.059 186.096 549.649 185.503C550.905 185.031 551.009 186.78 550.584 188.697C550.826 188.236 551.179 187.776 551.781 187.341C553.791 185.869 556.122 188.688 554.022 189.719C552.016 190.704 552.232 193.073 551.238 194.707C552.852 197.27 553.746 196.538 558.52 195.794C561.069 195.392 559.463 198.529 559.903 198.937C562.943 201.739 563.137 199.956 563.491 199.495C566.444 195.778 563.468 194.499 565.246 192.652C566.324 191.531 565.504 189.535 567.307 188.659C568.577 188.042 567.38 186.095 568.702 185.205C570.26 184.159 569.061 182.09 570.134 180.889C570.778 180.183 571.76 179.771 572.106 179.545C570.821 196.091 569.794 193.798 570.056 196.748C570.439 196.679 570.976 196.724 571.168 196.496C572.231 195.185 575.044 194.44 572.799 191.931C572.697 191.817 572.764 191.459 572.864 191.279C574.576 188.224 574.411 184.575 575.77 181.533C578.047 176.444 576.868 175.825 578.047 172.582C578.672 170.873 580.41 172.102 581.163 170.431C585.966 159.772 580.901 158.912 579.842 160.914C579.197 162.119 578.847 164.001 577.883 164.4C575.028 165.579 577.762 169.89 575.112 170.239C572.491 170.583 573.442 164.119 575.983 161.492C579.186 158.197 576.299 157.522 578.434 153.496C579.244 151.967 580.875 152.89 582.163 152.819C584.772 152.691 586.165 150.06 587.189 150.27C588.39 152.522 588.253 154.508 586.079 156.082C588.188 182.419 576.196 210.584 566.337 234.317C552.276 268.163 535.145 300.767 516.837 332.488C511.123 342.388 505.209 352.131 499.143 361.77C498.322 364.246 497.093 366.603 495.001 368.457C494.977 368.441 494.954 368.425 494.941 368.407C493.248 371.062 491.545 373.719 489.829 376.358C489.806 377.968 489.278 380.097 486.726 383.06C486.113 383.771 485.83 383.274 485.557 382.835C477.528 394.985 469.282 407.001 460.861 418.948C458.605 422.142 456.351 425.346 454.095 428.54C451.638 432.025 449.129 435.56 446.116 438.557C426.653 469.064 349.859 556.681 272.924 606.353C107.865 712.921 132.735 689.238 55.4059 725.037C23.37 739.868 3.07349 750.504 -28.7236 751.256C-31.4256 751.32 -33.3109 750.565 -34.313 748.348C-35.7379 745.202 -38.1873 743.522 -39.1777 740.978C-42.6064 732.169 -45.7066 732.895 -45.3919 729.87C-45.0915 726.99 -47.2349 724.868 -47.4659 722.197C-49.7042 720.56 -48.2892 717.326 -50.2601 715.651C-52.8087 713.481 -56.4389 702.442 -56.6656 700.298C-57.3517 693.999 -59.7614 694.386 -62.2843 686.256C-63.5274 682.264 -64.2382 677.9 -67.4932 674.751C-68.517 673.758 -69.1982 672.469 -68.7998 671.025C-68.0138 668.189 -70.5731 666.072 -70.2655 663.231C-70.1266 661.925 -71.5018 660.396 -72.3333 659.063C-74.8599 654.999 -70.6829 654.942 -74.9788 651.321C-77.4388 649.248 -76.7096 641.564 -74.2856 640.92C-69.7469 639.72 -65.5175 637.377 -60.6688 637.269C-46.3972 636.945 88.5904 576.297 100.825 568.953C258.652 474.278 270.371 445.227 280.477 446.645C279.324 445.106 278.606 445.185 280.535 442.599C281.319 441.542 282.29 440.675 283.695 440.521C283.026 442.716 282.27 444.876 280.823 446.704C281.9 446.925 282.969 447.493 284.222 448.353C284.618 448.627 285.871 447.19 285.827 446.558C285.239 437.324 290.974 444.505 293.228 438.059C293.819 436.386 296.347 434.972 295.7 434.429C294.994 433.846 292.534 434.404 291.977 436.487C290.905 440.432 288.789 439.078 284.716 438.812C294.567 425.223 311.518 409.594 332.66 390.013C335.548 387.334 336.828 387.162 337.179 387.19C337.487 388.72 336.149 389.41 331.389 394.319C329.609 396.156 329.744 399.699 330.997 399.38C333.231 398.812 334.272 397.21 340.586 389.946C341.537 388.858 342.195 390.751 342.096 391.155C341.722 392.677 338.297 396.764 341.48 398.006C342.169 398.277 343.316 401.179 341.549 400.961C338.419 400.574 338.474 400.93 338.77 403.01C339.28 406.658 336.715 403.78 340.325 408.999C339.646 409.01 339.007 409.075 338.331 409.046C337.367 408.997 337.184 406.703 335.734 408.064C331.246 412.283 333.638 410.009 333.242 413.537C332.769 417.82 335.426 418.07 337.964 415.251C341.642 411.158 342.652 412.357 340.325 408.999C354.565 405.367 340.901 413.234 339.563 418.071C336.539 420.225 335.364 424.108 332.147 426.094C331.965 426.209 332.055 426.762 332.017 427.114C334.845 426.794 336.089 424.24 337.753 422.77C339.822 420.951 339.799 424.746 343.131 423.003C346.418 421.288 347.465 416.809 350.807 416.466C350.107 418.88 349.791 419.039 350.498 419.185C351.155 419.33 352.992 417.808 353.06 416.108C354.221 415.786 355.382 415.463 356.553 415.139C355.126 418.477 352.944 421.292 350.424 423.874C348.642 425.702 348.149 426.848 348.203 427.032C345.342 428.74 344.042 428.803 345.984 435.972C346.056 436.253 346.829 436.652 346.917 436.575C348.419 435.276 351.299 437.537 352.163 434.514C352.705 432.627 356.137 433.173 355.721 428.472C355.347 424.23 359.793 429.572 360.882 425.492C360.989 425.076 361.982 424.164 362.348 424.443C362.642 424.664 362.808 424.624 362.885 424.549C362.865 424.603 362.84 424.689 362.818 424.795C362.51 426.121 362.176 427.473 361.662 428.725C360.993 430.36 363.343 430.818 362.905 432.27C362.682 433.001 363.017 433.448 363.407 434.028C367.091 439.539 356.879 444.594 361.953 443.876C365.015 443.442 363.382 440.832 369.169 439.456C369.257 438.261 369.912 437.167 370.848 436.834C374.845 435.448 378.9 423.522 380.781 434.614C381.236 437.286 379.165 436.402 378.926 439.341C378.84 440.323 380.168 441.931 380.664 440.012C381.051 438.508 386.319 434.605 386.513 434.498C388.17 433.608 386.04 432.623 386.737 431.703C387.31 430.939 387.734 430.587 388.865 430.717C390.445 430.908 391.458 429.718 390.742 428.964C388.981 427.099 389.045 425.44 390.628 423.578C390.963 423.181 388.347 419.408 392.005 419.516C393.109 419.55 394.146 420.113 395.127 419.082C395.563 418.626 396.306 418.349 396.914 419.011C398.097 420.321 401.272 423.088 398.727 425.36C393.821 429.746 393.17 428.96 392.708 430.497C391.429 434.764 389.765 432.932 390.056 441.193C390.125 443.142 390.251 444.563 392.072 445.695C394.311 447.108 394.567 447.123 395.809 444.499C395.976 444.133 396.953 442.573 397.543 442.802C398.375 443.128 397.799 443.538 397.626 445.886C397.547 446.907 398.519 447.503 399.453 447.049C399.854 446.854 400.146 446.445 400.546 446.24C404.135 444.4 403.463 449.207 405.105 448.513C406.427 447.958 405.766 444.876 405.276 444.304C403.651 442.404 404.34 442.564 406.773 437.325C407.429 436.738 408.021 436.021 408.779 435.609C410.761 434.548 409.743 433.249 410.303 431.236C410.198 431.499 410.087 431.784 409.991 432.096C406.838 434.935 406.245 434.92 406.73 437.363C406.643 437.501 403.545 437.342 402.627 440.069C402.482 440.502 400.175 442.852 399.563 441.947C398.858 440.916 399.113 441.033 403.058 435.164C404.305 433.301 405.344 431.242 406.848 429.617C408.242 428.114 410.347 427.336 411.615 425.591C409.647 426.111 407.706 426.677 406.131 427.908C404.38 426.549 404.394 423.772 405.486 421.836C406.578 419.899 408.447 418.554 410.115 417.103C411.791 415.64 413.396 413.844 413.645 411.634C411.424 412.332 409.18 410.107 408.823 407.804C408.466 405.5 409.34 403.207 409.938 400.954C410.589 398.499 410.141 394.911 407.61 394.74C405.48 394.598 404.334 397.073 403.368 398.976C402.403 400.879 399.782 402.676 398.41 401.055C397.037 402.504 396.874 404.688 396.122 406.532C395.369 408.376 393.167 410.077 391.504 408.976C390.176 408.099 390.262 406.112 390.793 404.613C391.324 403.114 392.175 401.588 391.871 400.027C391.392 397.613 387.682 396.712 386.151 398.636C384.992 397.515 384.748 395.781 384.131 394.287C383.515 392.793 382.017 391.317 380.497 391.847C379.875 392.061 379.391 392.586 378.753 392.763C376.845 393.282 375.74 390.668 375.514 388.696C375.215 386.098 375.228 382.864 377.508 381.596C378.203 379.661 375.994 377.399 374.04 378.059C371.242 378.993 370.808 383.88 367.857 383.917C365.729 383.948 364.71 381.358 364.28 379.272C361.847 379.642 359.422 380.001 356.989 380.372C357.226 378.428 355.854 376.472 353.994 375.854C349.529 374.378 345.397 379.945 342.669 382.555C342.192 383.007 341.678 383.477 341.098 383.755C340.548 384.81 339.659 385.683 338.925 386.619C338.603 387.033 337.454 386.916 337.202 386.982C337.662 383.921 339.338 382.905 340.52 382.477C341.781 380.409 344.537 376.89 344.794 376.569C346.28 376.299 349.275 370.968 350.354 369.746C352.142 367.724 353.827 365.863 355.52 363.716C359.743 358.366 363.798 352.883 367.68 347.28C372.811 339.884 377.654 332.297 382.177 324.514C392.303 307.125 418.304 260.227 421.42 254.325C425.32 246.919 429.041 239.424 432.561 231.833C435.95 224.52 439.508 217.695 442.552 210.17C445.823 202.096 449.216 194.081 452.465 186.001C458.84 170.116 464.664 153.885 467.535 136.95C467.686 136.048 467.926 135.019 468.761 134.633C469.212 134.43 469.758 134.473 470.2 134.22C471.224 133.648 470.911 132.089 470.337 131.054C469.086 128.812 469.853 125.868 470.551 123.444C470.725 122.833 469.846 119.059 470.719 118.829C473.404 118.108 471.503 116.37 472.153 114.3C472.565 112.986 474.7 114.722 474.588 116.176C474.492 117.494 474.168 116.943 473.707 122.972C473.58 124.622 475.726 125.36 476.303 123.721C476.625 122.808 478.115 115.058 479.583 111.224C482.797 102.835 480.092 101.486 482.597 94.7402C486.098 85.3032 483.578 79.9879 485.71 78.9097C487.774 77.854 486.907 83.9367 486.663 85.5055C482.074 115.203 480.832 117.542 488.748 111.826C488.685 110.527 488.272 108.976 489.563 108.253C491.784 106.996 491.795 110.247 493.375 111.169C494.263 111.689 494.551 113.781 495.592 113.023C497.073 111.941 495.561 110.894 494.794 109.804C494.203 108.956 494.284 107.61 494.13 106.479C493.852 104.446 491.543 107.01 491.672 104.476C491.777 102.363 491.673 100.278 494.734 100.18C495.107 100.163 495.431 98.6406 495.779 97.8152C496.787 98.7805 497.977 100.353 498.752 99.247C500.399 96.8951 498.623 93.4977 496.243 95.1088C495.918 92.5354 490.866 93.3713 495.647 96.9243C495.378 97.0647 495.333 97.2659 495.505 97.5396C492.66 97.7106 491.338 94.4036 491.675 92.2284C492.267 88.3807 488.472 89.5371 488.964 87.4863C489.362 85.8183 493.528 87.2675 495.204 87.5425C496.859 87.8113 497.934 85.9493 499.703 86.2888C501.882 86.7061 503.082 84.6896 505.679 88.1919C508.212 84.3984 505.277 79.2601 509.861 79.2613C511.059 79.2571 510.987 78.0201 510.816 77.1873C510.616 76.1971 509.86 76.68 509.249 76.8417C505.208 77.9309 510.92 67.9095 506.132 67.0612C503.412 66.5793 507.732 69.3826 504.933 73.3362C504.108 74.5023 503.879 75.7025 505.365 76.8353C506.393 77.6245 505.679 78.9533 505.528 80.0275C505.18 82.3672 504.956 80.2331 495.572 82.6277C495.019 82.7689 493.758 82.3169 493.76 82.1639C493.815 79.9994 491.162 80.3896 490.692 78.8082C489.531 74.9332 495.72 82.2655 496.904 78.7677C497.937 75.7243 495.346 76.2862 494.991 75.1716C494.531 73.7002 494.693 72.0751 493.792 70.6938C493.256 69.8664 496.202 69.3009 496.439 69.3189C497.27 69.3611 498.34 70.1628 498.846 69.8678C499.486 69.4771 499.723 68.428 500.629 67.9891C506.485 65.1472 493.319 66.9684 493.816 50.2812C493.969 45.2429 499.002 45.5385 495.875 41.1872C493.057 37.2572 493.582 37.4569 493.41 36.5123C503.108 35.4022 501.385 41.0303 498.635 30.4718C498.16 28.6372 497.977 26.7902 495.314 27.2939C495.048 27.3422 494.397 26.7794 494.387 26.4968C494.342 24.0657 492.55 22.3685 491.819 20.2449C491.323 18.8003 490.395 19.4566 489.749 19.9296C485.508 23.0473 486.575 17.1113 482.51 19.8006C480.876 20.8798 479.436 17.4824 479.256 16.4887C479.004 15.1014 480.637 19.0023 483.029 15.2142C484.102 13.5151 487.003 12.8664 488.287 14.1172L488.247 14.1753ZM548.235 64.5194C548.492 64.1984 548.546 63.9954 548.543 63.7521C548.491 64.0258 548.371 64.261 548.235 64.5194ZM585.975 155.959C585.805 155.187 585.511 153.736 585.337 153.788C584.854 153.926 583.802 153.894 583.709 156.014C583.643 157.388 584.866 156.678 585.984 155.947L585.975 155.959ZM121.344 617.143C123.188 619.186 126.925 614.859 124.752 614.756C123.08 614.673 121.792 615.415 121.344 617.143ZM127.389 610.75C128.913 613.268 131.676 609.342 128.255 609.587C127.818 609.869 126.912 609.973 127.389 610.75ZM306.72 421.848C306.921 422.117 307.278 422.682 307.335 422.661C310.707 420.972 306.86 419.262 306.72 421.848ZM323.455 424.573C324.415 424.205 325.052 422.728 324.062 421.363C323.354 420.373 320.545 423.434 321.808 424.008C322.351 424.255 323.037 424.73 323.455 424.573ZM304.22 437.192C305.165 435.79 305.47 435.399 304.607 434.397C303.9 433.581 303.599 435.729 303.312 436.889C303.742 437.411 304.124 437.331 304.22 437.192ZM485.907 287.184C484.174 289.847 484.551 289.179 484.378 289.962C486.913 289.929 487.708 287.589 485.907 287.184ZM491.612 291.291C493.743 293.455 494.16 287.465 492.219 287.299C490.969 287.973 490.616 290.283 491.612 291.291ZM503.815 273.19C502.488 270.921 500.237 272.57 500.012 273.85C499.918 274.396 502.486 275.556 503.201 275.406C503.837 275.27 504.225 273.878 503.825 273.189L503.815 273.19ZM499.979 276.468C498.433 276.017 498.212 277.206 497.597 278.07C497.057 278.849 496.62 279.517 497.375 280.376C499.902 282.987 503.491 277.508 499.979 276.468ZM511.065 279.202C511.093 277.896 509.109 278.277 508.704 281.196C508.656 281.55 511.02 281.527 511.065 279.202ZM517.197 284.705C517.937 283.463 517.161 281.876 514.727 281.85C513.549 282.359 507.187 294.338 510.077 295.48C511.862 296.183 514.804 288.768 517.197 284.705ZM419.326 422.494C420.624 422.533 420.897 423.479 421.08 424.483C422.44 422.681 425.23 421.422 424.335 419.46C422.047 418.951 420.317 421.176 418.476 422.74C418.742 422.58 419.018 422.479 419.326 422.494ZM442.172 417.167C442.057 417.432 442.693 418.638 443.337 417.596C444.028 416.475 444.717 415.902 443.738 414.82C443.258 414.917 443.311 414.541 442.164 417.179L442.172 417.167ZM434.694 421.543C434.762 421.531 434.818 421.501 434.895 421.476C435.173 421.162 435.516 420.754 435.887 420.28C435.434 420.586 435.031 420.994 434.694 421.543ZM433.843 439.027C439.311 430.909 443.27 426.125 446.022 422.922C447.738 419.104 449.7 415.414 451.106 412.019C451.532 411.006 451.906 409.708 451.152 408.91C450.801 408.547 450.352 408.425 449.869 408.452C450.491 409.416 450.869 410.547 449.154 412.129C446.909 414.203 446.892 417.693 444.268 419.419C441.599 421.174 441.345 424.422 439.614 426.758C432.36 436.623 434.496 436.408 430.831 435.986C427.085 435.558 431.632 437.934 429.978 440.074C425.852 445.396 428.046 447.63 433.851 439.015L433.843 439.027ZM425.75 449.592C427.868 447.988 426.317 446.501 426.233 446.374C423.459 449.287 425.454 449.809 425.75 449.592ZM422.679 451.766C421.387 451.37 421.584 451.893 420.576 455.41C421.276 455.069 422.052 454.807 422.599 454.291C424.185 452.783 423.282 451.951 422.679 451.766ZM420.382 455.628C418.419 455.903 417.454 457.135 417.107 458.977C418.778 458.44 420.274 457.721 420.382 455.628ZM407.713 471.669C411.119 467.809 415.092 464.333 416.799 459.236C416.196 459.386 415.518 459.459 415.148 459.831C405.396 470.047 404.814 470.478 405.938 471.016C406.528 471.295 407.552 471.841 407.702 471.661L407.713 471.669ZM317.012 480.554C315.619 480.217 314.559 480.928 315.313 483.627C315.775 485.443 315.933 485.527 317.334 484.398C320.848 481.585 319.937 481.273 317.012 480.554ZM326.613 480.031C326.57 479.459 324.745 479.485 323.707 481.94C324.695 482.96 326.755 481.936 326.613 480.031ZM314.272 491.774C315.042 491.593 315.829 491.45 316.575 491.193C318.916 490.372 316.331 485.983 314.272 491.774ZM310.544 493.294C310.408 493.441 310.348 493.503 310.304 493.541C310.377 493.497 310.536 493.479 310.551 493.953C310.605 495.367 313.489 493.451 313.97 492.012C312.749 492.233 311.47 492.242 310.535 493.306L310.544 493.294ZM324.147 488.843C320.996 492.87 322.328 492.873 324.124 492.689C328.664 491.834 325.524 487.078 324.147 488.843ZM314.493 496.744C313.916 498.882 314.418 499.746 314.407 500.185C317.077 499.721 317.968 498.471 314.493 496.744ZM236.588 512.016C235.236 512.068 234.178 512.006 233.585 513.781C233.198 514.949 231.752 515.719 233.405 516.985C234.608 517.904 233.069 520.288 233.446 520.738C233.705 521.046 234.2 521.088 234.652 520.722C236.227 519.43 234.379 517.204 236.052 515.833C243.355 509.822 238.836 509.057 237.869 510.615C237.513 511.177 237.375 511.985 236.61 512.022L236.588 512.016ZM205.237 519.873C205.47 519.922 205.752 520.074 205.859 519.993C210.334 516.65 204.418 517.206 205.237 519.873ZM224.617 520.979C225.191 521.454 225.897 521.478 226.446 521.033C226.703 520.824 226.693 520.266 226.794 519.872C225.979 518.18 223.55 520.085 224.617 520.979ZM207.249 523.004C204.065 527.129 201.288 527.226 203.31 527.672C206.031 528.276 204.95 529.092 209.156 524.995C210.14 524.034 207.348 522.874 207.259 523.002L207.249 523.004ZM312.749 502.753C312.388 502.056 314.252 501.575 314.322 500.393C314.164 500.585 313.703 500.679 312.588 500.861C310.831 501.149 310.826 502.634 310.453 503.881C310.109 505.01 310.973 504.894 311.558 504.818C312.738 504.655 313.651 504.479 312.76 502.761L312.749 502.753ZM278.277 513.91C274.336 512.745 279.731 510.271 276.944 509.812C271.825 514.369 271.766 513.872 274.17 514.574C275.5 514.963 274.918 515.952 276.543 517.345C279.919 512.595 278.88 514.095 278.267 513.911L278.277 513.91ZM335.958 504.576C335.549 504.061 332.78 505.661 332.111 508.415C331.714 510.032 338.547 507.866 335.958 504.576ZM264.384 521.747C265.751 521.052 264.062 520.424 263.345 520.056C262.033 520.558 259.812 522.039 260.341 523.162C260.674 523.874 260.752 523.576 264.382 521.738L264.384 521.747ZM257.552 524.817C256.073 524.954 255.004 524.833 254.465 523.04C253.936 521.246 250.982 519.81 249.635 519.669C248.32 519.928 249.264 521.037 248.505 523.126C247.902 524.79 249.081 524.678 249.991 525.265C251.051 525.957 251.725 527.206 253.272 526.489C255.883 530.852 260.711 524.528 257.554 524.827L257.552 524.817ZM219.034 530.702C216.37 528.737 218.903 527.352 219.394 526.358C218.023 526.028 219.007 525.402 212.921 528.997C212.536 529.229 212.71 529.848 213.292 529.864C215.029 529.915 215.501 531.059 215.969 532.407C216.406 533.639 218.83 532.884 219.024 530.704L219.034 530.702ZM244.715 524.2C243.432 525.246 242.43 526.109 243.882 526.831C247.509 528.612 246.805 522.5 244.715 524.2ZM197.19 530.298C197.185 531.498 198.304 531.955 198.864 532.799C201.532 531.369 197.21 528.221 197.19 530.298ZM263.663 529.816C264.085 528.611 263.743 524.151 262.035 525.995C261.891 526.326 261.28 527.047 261.443 527.495C261.727 528.277 262.484 528.861 262.234 529.892C262.071 530.562 263.49 530.315 263.663 529.816ZM268.379 531.551C268.919 531.22 267.836 530.237 267.614 530.359C261.617 533.602 265.682 533.21 268.379 531.551ZM259.239 536.514C259.239 536.514 259.6 536.713 259.804 536.828C263.312 536.445 261.922 531.138 259.239 536.514ZM237.874 541.155C241.875 538.111 241.047 538.536 241.513 537.405C236.865 536.378 234.524 543.694 237.874 541.155ZM221.346 545.172C220.481 545.055 218.744 546.01 218.998 546.178C222.621 548.559 223.357 545.447 221.346 545.172ZM228.143 559.437C223.068 561.822 222.215 562.221 222.465 562.531C225.612 566.32 231.28 557.963 228.143 559.437ZM217.251 567.736C218.66 564.919 216.246 565.561 215.097 568.188C215.154 568.056 216.492 569.267 217.251 567.736ZM211.509 566.787C221.095 561.032 228.505 557.623 226.386 555.02C223.848 551.903 223.522 548.314 221.395 549.808C219.726 550.975 217.599 551.239 216.09 552.834C212.158 556.983 213.545 550.908 211.154 550.224C207.979 549.306 212.754 548.51 210.857 546.182C210.139 545.306 209.321 543.818 208.783 542.818C208.648 543.137 208.338 543.499 208.398 543.772C208.769 545.484 207.458 546.769 207.3 548.362C207.2 549.326 206.23 549.634 205.227 548.759C204.103 547.774 203.933 547.957 203.69 549.251C203.228 551.744 201.233 548.031 200.782 547.452C198.772 544.89 203.382 543.799 201.856 540.712C203.648 541.291 205.157 542.328 206.734 540.375C207.986 538.816 210.316 535.923 208.401 535.448C206.198 534.903 202.195 533.963 202.591 536.198C202.891 537.851 202.008 539.2 201.856 540.712C201.394 540.298 200.471 539.693 200.549 539.506C201.877 536.297 199.403 535.374 198.776 532.988C195.673 533.134 195.682 533.072 195.023 530.285C194.037 526.083 193.502 527.278 192.038 527.615C190.565 527.953 193.611 532.025 190.945 531.279C187.239 530.234 185.166 533.202 182.464 534.557C182.213 534.684 182.779 536.065 182.459 536.489C176.391 544.715 174.301 535.5 171.135 544.764C170.751 545.891 172.923 545.151 175.266 545.122C176.472 545.107 175.158 547.104 174.295 547.667C171.699 549.378 167.166 551.339 170.432 551.468C171.906 551.526 172.08 552.876 172.821 553.656C173.414 554.291 173.234 554.811 172.67 555.29C165.324 561.512 162.841 558.477 161.644 563.247C164.349 564.708 167.331 562.774 170.066 563.842C171.439 563.065 172.824 562.295 174.186 561.509C175.492 560.754 170.023 561.086 172.259 559.745C175.733 557.661 175.453 558.077 176.28 558.994C176.79 559.562 177.663 559.78 178.065 559.311C179.003 558.205 181.802 558.114 180.321 555.557C183.692 552.069 184.542 550.258 187.352 551.404C190.118 552.529 191.242 550.322 191.193 550.057C194.601 548.899 196.165 547.213 198.55 549.321C199.118 549.817 200.477 549.184 200.61 550.42C200.675 551.059 200.228 551.73 200.145 552.395C200.016 553.476 200.684 554.747 202.082 553.771C209.306 548.72 205.379 553.457 205.284 555.731C205.259 556.213 206.289 558.638 206.672 556.434C206.851 555.406 207.703 555.007 208.367 554.409C209.083 553.761 209.688 553.234 210.464 554.425C212.214 557.125 214.919 556.797 212.949 558.598C209.639 561.638 207.071 558.913 206.629 563.648C206.397 566.119 203.802 566.102 202.038 564.278C201.524 563.741 202.557 560.922 201.085 560.874C200.299 560.854 197.939 562.634 199.279 564.139C201.363 566.494 196.44 565.63 198.377 570.706C199.517 573.68 201.214 568.026 207.502 567.616C208.411 563.609 212.551 563.569 212.031 565.015C211.209 567.319 212.936 566.589 207.567 567.746C207.276 569.059 204.515 570.475 206.253 570.587C209.513 570.798 210.268 570.254 211.532 566.803L211.509 566.787ZM168.36 545.543C166.155 547.224 166.775 546.664 166.25 547.694C167.349 547.759 167.289 548.268 168.933 546.516C169.179 546.248 168.654 545.764 168.362 545.553L168.36 545.543ZM153.823 553.589C151.884 551.359 151.136 556.923 151.028 557.227C150.334 559.172 151.93 559.563 153.93 559.048C153.892 565.163 160.959 555.383 154.66 558.143C155.511 552.978 160.553 555.335 162.682 551.777C163.47 550.465 160.787 550.241 158.617 549.934C158.524 549.92 158.249 550.59 158.203 550.954C158.153 551.349 158.468 552.024 158.315 552.133C154.691 554.732 154.602 554.464 153.833 553.587L153.823 553.589ZM197.678 558.23C198.523 559.53 199.351 559.776 200.404 559.026C201.411 558.304 199.368 556.795 198.147 557.403C198.062 556.371 197.908 554.234 196.824 555.041C191.78 558.772 186.443 562.18 187.445 563.95C187.58 564.189 188.349 564.395 188.546 564.248C190.419 562.81 193.148 562.559 194.081 559.747C194.526 558.395 196.483 558.813 197.679 558.24L197.678 558.23ZM190.708 571.793C190.708 571.793 190.879 572.006 190.971 572.121C193.157 572.629 194.379 570.628 195.892 569.5C196.071 569.366 194.862 567.858 190.708 571.793ZM180.781 574.774C176.682 575.986 180.317 576.414 179.626 578.094C179.379 578.698 178.723 578.441 179.607 578.606C181.733 579.012 185.356 577.917 184.653 577.181C183.964 576.463 181.287 577.894 180.781 574.774ZM162.243 579.756C163.248 582.104 164.802 580.47 166.449 578.962C168.836 576.77 160.595 575.888 162.243 579.756ZM208.68 574.272C209.601 574.024 209.896 572.964 209.258 572.247C207.787 570.583 204.563 575.386 208.68 574.272ZM193.525 578.406C191.767 577.119 190.047 576.995 189.82 579.16C189.737 579.937 188.182 579.823 188.414 580.991C190.045 581.741 191.906 579.564 193.525 578.406ZM231.28 585.171C233.83 585.612 234.244 584.978 234.508 583.467C233.808 580.392 227.323 584.476 231.28 585.171ZM154.578 593.74C154.778 593.836 155.009 594.048 155.175 594.007C158.469 593.176 158.33 596.382 160.267 595.634C162.157 594.905 155.843 588.225 154.587 593.738L154.578 593.74ZM170.361 588.364C170.385 589.224 171.271 589.124 171.696 589.504C173.26 590.897 170.27 590.047 168.264 592.099C172.838 592.996 175.009 589.837 176.095 588.766C174.263 588.977 173.832 586.657 172.123 586.591C171.447 586.561 170.341 587.524 170.361 588.364ZM166.815 587.361C169.432 586.215 172.195 585.307 174.41 583.401C175.404 582.55 174.651 581.426 173.763 581.628C170.883 582.283 166.347 585.902 165.591 587.055C166.008 587.172 166.514 587.497 166.815 587.361ZM140.85 587.766C140.127 588.599 138.033 590.503 141.425 589.928C141.789 589.862 142.084 589.412 142.42 589.138C141.937 588.717 141.452 588.287 140.859 587.764L140.85 587.766ZM112.701 593.385C116.278 594.727 116.869 594.793 117.478 593.95C117.869 593.412 118.103 592.8 117.364 592.254C116.496 591.618 115.909 590.566 114.369 590.48C113.157 591.533 111.196 592.824 112.701 593.385ZM153.583 584.174C154.157 583.643 153.932 583.745 150.852 582.678C150.075 584.78 152.546 585.124 153.583 584.174ZM129.733 584.418C131.232 586.128 135.963 585.929 137.146 582.706C137.997 580.397 133.046 579.101 132.381 579.354C130.888 579.919 128.964 583.541 129.733 584.418ZM169.498 569.952C170.312 570.516 170.048 572.983 172.238 571.213C173.328 570.334 178.584 571.463 179.656 572.438C180.215 572.946 180.477 573.772 180.823 574.502C183.523 571.461 183.638 571.42 183.264 569.862C182.869 568.246 183.613 566.414 181.948 564.968C180.55 563.758 180.797 561.538 179.513 561.294C176.847 560.772 181.598 572.166 176.785 569.056C175.195 568.023 174.121 568.32 172.692 569.24C172 569.681 170.209 568.38 169.528 568.829C169.01 569.167 168.998 569.606 169.497 569.942L169.498 569.952ZM154.458 571.473C158.23 573.106 155.131 566.615 161.494 568.631C161.829 568.743 164.38 567.903 162.821 567.434C159.971 566.57 162.607 566.701 161.498 563.284C160.624 563.504 157.881 564.073 158.368 564.848C161.212 569.373 142.769 566.43 154.46 571.483L154.458 571.473ZM113.371 565.446C114.336 569.305 120.171 564.109 118.736 564.095C113.036 564.053 113.861 564.117 113.371 565.446ZM139.536 559.76C141.522 563.536 140.665 562.005 140.139 563.757C139.697 565.24 141.09 566.42 141.564 567.797C141.756 568.352 142.273 568.288 142.663 567.862C144.826 565.498 147.126 567.194 149.893 563.348C146.369 562.748 145.527 564.212 144.3 564.729C144.195 564.768 143.51 564.019 143.583 563.802C144.199 562.044 145.511 560.261 144.936 559.501C144.149 558.465 143.016 561.852 140.63 558.789C140.417 558.513 139.768 558.295 139.475 558.42C138.395 558.849 139.293 559.317 139.538 559.77L139.536 559.76ZM128.628 559.129C129.312 558.476 130.613 558.362 130.616 557.091C129.843 557.312 129.055 557.506 128.302 557.785C126.515 558.465 127.195 560.476 128.628 559.129ZM130.796 556.966C137.339 558.462 132.262 549.87 130.796 556.966V556.966ZM136.812 550.467C136.159 554.092 135.938 553.716 137.004 554.437C138.464 555.422 140.15 553.459 138.873 552.248C138.233 551.632 136.94 549.885 136.812 550.467ZM150.172 545.399C149.758 544.966 149.405 544.309 148.909 544.155C147.025 543.572 142.424 551.766 150.172 545.399ZM163.642 536.185C161.961 539.854 158.964 534.656 157.97 538.587C157.477 540.516 157.314 541.633 159.105 541.033C162.276 539.97 164.936 538.217 166.814 535.406C165.698 535.304 164.454 534.442 163.652 536.183L163.642 536.185ZM177.004 525.811C176.305 526.609 174.226 526.519 174.676 527.596C176.407 531.703 169.585 530.512 167.245 535.145C172.265 533.298 177.271 531.424 180.572 526.82C178.726 525.834 178.444 524.168 177.004 525.811ZM186.929 519.741C187.818 520.606 187.135 521.319 186.665 522.035C185.222 524.218 185.956 518.911 181.868 522.093C180.649 523.046 181.556 522.891 180.838 526.66C196.257 519.389 190.065 519.659 189.032 519.064C187.943 518.439 185.856 518.696 186.931 519.751L186.929 519.741ZM288.043 500.357C288.4 500.922 288.607 500.661 289.116 500.386C292.235 498.702 290.479 500.281 291.682 503.101C292.647 502.652 292.97 501.688 293.964 500.837C295.038 499.921 298.485 499.874 295.906 496.755C295.816 496.649 294.78 494.916 293.966 495.471C287.573 499.782 288.006 499.591 288.043 500.357ZM195.992 515.748C195.24 516.474 200.836 516.23 198.33 513.565C197.546 514.287 196.762 515.008 195.992 515.748ZM245.105 506.638C244.385 507.379 244.945 507.216 245.967 507.244C248.119 507.229 249.066 504.608 248.833 504C248.41 502.898 247.85 503.792 245.093 506.63L245.105 506.638ZM302.919 493.621C303.129 493.319 306.955 487.746 306.752 486.797C306.097 486.215 305.141 485.819 305.043 485.949C302.445 489.439 296.26 490.419 297.639 493.645C298.365 495.353 301.959 494.995 302.919 493.621ZM283.652 493.969C284.079 492.011 284.578 490.06 285.047 488.105C281.951 487.57 282.579 487.446 281.794 493.422C281.635 494.619 280.39 496.38 282.518 496.624C284.127 496.81 283.426 494.965 283.65 493.959L283.652 493.969ZM287.563 484.274C286.735 485.482 286.014 486.771 285.256 488.027C291.611 487.93 289.146 481.964 287.563 484.274ZM269.097 486.915C268.726 486.718 268.757 486.55 268.815 486.479C268.771 486.517 268.698 486.561 268.549 486.639C260.632 492.182 268.424 491.042 269.341 488.091C269.451 487.745 269.334 487.045 269.107 486.913L269.097 486.915ZM261.012 493.323C258.4 495.281 257.499 495.861 257.805 496.09C259.397 497.305 263.641 493.75 261.012 493.323ZM265.533 496.282C265.796 496.052 265.931 495.672 266.119 495.363C261.524 494.856 260.643 500.585 265.533 496.282ZM253.918 499.092C250.597 501.454 250.791 501.347 250.916 501.813C254.202 502.558 255.466 497.988 253.918 499.092ZM240.527 500.121C240.905 500.469 241.614 500.452 242.189 500.541C243.014 500.666 242.022 497.888 240.271 498.094C239.545 498.185 240.162 499.791 240.525 500.111L240.527 500.121ZM215.027 499.059C214.681 499.559 218.882 504.061 219.748 498.974C215.182 498.624 215.396 498.514 215.027 499.059ZM219.818 495.892C220.804 496.841 219.815 497.834 219.91 498.803C223.643 497.027 221.912 494.658 220.168 494.965C219.539 495.079 219.4 495.491 219.818 495.892ZM249.593 489.542C249.939 490.271 251.222 490.679 251.719 490.111C254.112 487.339 248.667 488.134 249.593 489.542ZM242.603 479.702C244.228 482.72 243.976 482.339 248.418 478.311C246.781 477.47 245.206 478.365 245.424 476.039C242.62 475.989 242.174 477.676 242.603 479.702ZM268.698 473.745C269.011 473.901 269.306 474.122 269.636 474.205C273.659 475.151 275.614 475.731 274.76 471.811C273.566 467.749 273.585 470.937 268.698 473.745ZM280.957 469.497C280.53 467.145 277.186 463.28 275.994 468.192C278.64 468.21 279.861 472.755 280.957 469.497ZM255.247 469.631C254.497 470.703 255.961 471.941 256.944 471.082C258.259 469.928 259.272 468.565 259.482 466.759C257.751 466.402 257.677 466.162 255.247 469.631ZM261.401 461.542C260.016 462.982 258.686 464.444 259.624 466.641C261.787 466.747 262.713 464.454 264.639 463.983C265.524 463.761 265.121 463.052 264.372 463.015C262.616 462.917 262.708 460.176 261.393 461.553L261.401 461.542ZM293.519 453.821C294.856 452.958 295.791 450.999 297.999 452.468C298.866 453.043 299.572 452.061 300.175 451.352C301.048 450.34 300.239 449.856 299.681 449.195C298.204 447.441 297.776 447.265 296.512 448.419C292.804 451.846 293.217 452.442 293.519 453.821ZM273.03 456.178C273.869 455.874 274.53 452.237 273.854 451.648C273.723 451.54 273.457 451.588 272.917 451.524C268.409 456.306 266.863 458.426 273.032 456.188L273.03 456.178ZM317.636 448.222C318.552 447.05 320.326 446.525 320.344 444.661C318.017 444.606 317.112 442.87 315.488 442.545C314.456 442.966 311.805 445.886 311.15 447.652C310.858 448.447 312.264 448.415 312.45 448.259C314.325 446.608 314.684 445.394 315.294 445.843C316.467 446.707 314.753 448.909 314.493 449.494C313.987 450.623 314.864 451.815 317.646 448.221L317.636 448.222ZM293.538 454.041C292.111 454.574 291.058 454.206 293.095 458.319C294.054 460.238 296.503 456.267 296.158 455.537C295.997 455.21 296.009 455.615 293.538 454.041ZM306.699 453.532C307.117 452.866 304.603 452.733 304.429 455.417C305.56 455.151 305.326 455.712 306.699 453.532ZM377.037 443.719C376.085 441.605 378.086 439.809 377.615 437.72C377.318 436.422 379.075 436.133 379.278 435.009C379.43 434.168 378.883 433.566 378.194 434.078C371.908 438.756 377.187 438.946 369.241 439.626C368.111 442.138 370.829 444.399 370.405 444.862C373.045 444.739 374.488 440.706 375.814 444.033C376.152 444.886 377.079 443.834 377.028 443.721L377.037 443.719ZM370.322 444.908C370.15 444.97 369.819 444.938 369.202 444.786C366.552 444.129 366.327 444.292 366.701 447.019C368.081 446.616 369.862 446.912 370.312 444.91L370.322 444.908ZM386.797 447.151C387.553 446.16 386.501 445.629 386.425 444.932C386.452 444.297 387.06 443.394 385.942 443.393C385.434 443.394 384.837 444.021 384.448 444.508C383.635 445.52 383.394 445.421 385.35 447.8C385.676 448.198 386.44 447.643 386.809 447.159L386.797 447.151ZM366.133 450.892C367.087 449.764 367.05 448.551 366.627 447.286C365.792 447.946 364.893 448.536 364.169 449.308C362.01 451.58 361.825 455.994 366.135 450.902L366.133 450.892ZM318.294 463.267C317.701 462.968 317.033 463.597 316.884 464.346C316.579 465.855 316.046 465.606 315.255 464.662C312.677 461.604 311.954 468.93 309.643 465.437C309.098 464.621 307.974 465.201 307.104 465.278C306.638 466.409 306.065 468.068 305.057 469.176C305.873 468.52 306.73 467.867 308.239 468.172C309.4 468.408 306.032 474.996 302.622 471.773C302.707 471.29 302.79 470.797 302.865 470.316C302.997 470.313 303.115 470.291 303.231 470.26C303.113 470.281 302.985 470.305 302.865 470.316C302.667 468.045 305.033 465.796 306.992 465.166C306.075 463.585 304.73 464.296 302.718 464.916C302.404 463.967 304.492 462.256 301.726 462.026C300.085 461.887 298.678 459.063 296.214 461.279C293.129 464.045 294.46 464.718 291.266 466.771C287.744 469.037 285.526 472.661 282.155 475.032C281.668 475.374 281.765 475.794 282.44 475.874C284.824 476.132 282.856 477.831 283.507 479.065C284.503 480.968 286.272 474.925 288.051 475.15C292.294 475.681 293.486 471.724 296.018 469.771C296.098 469.705 295.388 468.767 295.203 468.191C294.872 467.153 295.582 466.028 296.448 466.318C298.279 466.941 300.022 466.747 301.794 466.262C298.829 471.425 297.794 470.82 301.615 471.936C301.063 472.646 300.509 473.346 299.957 474.056C298.339 476.118 302.143 477.42 299.704 477.761C292.468 478.769 299.399 478.599 294.71 488.709C293.592 491.117 296.981 489.354 297.172 487.998C297.631 484.703 304.475 478.175 307.212 474.832C309.043 472.6 312.519 475.119 313.075 474.49C329.507 455.834 321.6 464.903 318.294 463.267ZM321.768 474.843C319.309 473.053 323.545 474.276 323.93 468.555C324.211 464.337 316.867 474.828 316.723 475.159C319.348 476.573 324.074 476.517 321.77 474.852L321.768 474.843ZM410.207 437.931C408.268 439.117 409.292 439.215 410.586 439.458C413.397 439.994 407.05 442.376 408.869 444.668C409.477 445.442 411.301 444.684 411.378 444.548C413.347 441.01 417.269 434.342 413.099 437.01C411.905 436.535 411.167 437.34 410.205 437.921L410.207 437.931ZM419.796 429.838C419.249 432.427 423.423 430.785 422.362 433.56C421.027 437.014 411.498 447.84 410.577 449.318C409.144 451.611 408.502 454.461 405.239 454.962C399.956 461.633 400.448 460.538 400.773 462.156C400.808 462.353 401.484 463.948 402.136 462.894C407.155 454.767 404.482 464.786 430.437 428.048C430.55 427.886 430.657 427.693 430.774 427.499C430.501 427.671 430.225 427.833 429.959 427.993C428.762 428.678 427.493 429.355 426.161 429.689C426.074 429.826 425.978 429.966 425.87 430.097C424.626 431.644 423.423 430.115 422.204 429.95C421.797 429.891 419.831 429.699 419.797 429.848L419.796 429.838ZM412.306 425.476C412.548 425.747 412.781 426.243 412.82 426.572C412.91 427.348 412.609 427.819 412.154 428.39C412.318 428.228 412.472 428.068 412.655 427.902C415.526 427.371 416.641 424.496 417.955 423.17C416.319 424.402 414.316 424.958 412.308 425.486L412.306 425.476ZM494.207 261.021C493.388 263.06 498.822 264.777 498.964 264.832C499.13 264.904 499.81 263.947 500.092 263.377C500.326 262.929 500.188 261.612 499.73 261.827C497.933 262.682 494.595 260.026 494.205 261.011L494.207 261.021ZM538.23 253.1C536.981 254.841 541.936 252.691 541.149 250.984C540.865 250.375 539.147 251.825 538.23 253.1ZM536.013 240.442C537.328 240.071 539.255 236.296 539.582 234.235C540.153 230.665 533.362 241.178 536.013 240.442ZM511.774 234.232C512.573 235.5 513.451 233.673 513.533 233.567C516.349 232.619 513.977 231.474 513.699 231.626C512.64 232.174 511.101 233.155 511.784 234.23L511.774 234.232ZM558.088 209.816C556.007 213.081 559.409 213.347 559.557 211.247C559.601 210.65 559.39 210.047 559.291 209.446C558.886 209.57 558.482 209.694 558.078 209.818L558.088 209.816ZM559.866 206.79C560.585 207.676 562.953 204.37 560.015 203.694C559.412 204.179 559.305 206.109 559.866 206.79ZM550.861 194.42C550.861 194.42 550.896 194.444 550.919 194.46C550.896 194.444 550.884 194.436 550.861 194.42ZM549.979 194.041C549.979 194.041 550.01 194.046 550.032 194.052C550.012 194.055 550.001 194.047 549.979 194.041ZM550.157 194.07C550.157 194.07 550.264 194.101 550.309 194.123C550.255 194.103 550.2 194.082 550.157 194.07ZM550.383 194.14C550.461 194.177 550.549 194.212 550.63 194.268C550.539 194.214 550.461 194.177 550.383 194.14ZM546.296 195.757C548.011 194.957 548.809 194.203 549.565 194.055C549.284 194.076 549.102 193.967 548.605 192.797C549.726 192.197 549.911 191.37 550.08 190.455C549.662 191.568 549.122 192.51 548.605 192.797C547.739 192.618 546.777 192.244 546.153 193.12C545.757 193.68 545.143 196.291 546.287 195.758L546.296 195.757ZM524.957 202.944C525.089 203.001 525.919 203.43 525.948 202.916C526.251 196.916 523.36 201.089 524.957 202.944ZM534.831 199.332C535.419 201.451 537.253 198.567 536.906 197.776C535.752 195.171 536.089 191.989 533.92 189.781C532.934 192.694 531.853 195.36 531.614 196.003C530.674 198.603 534.314 197.495 534.831 199.332ZM528.116 192.298C526.653 193.306 526.977 195.93 529.874 194.144C531.373 193.221 530.104 190.931 528.116 192.298ZM508.882 189.194C508.993 191.034 512.796 188.921 511.809 185.776C510.344 185.544 508.735 186.812 508.882 189.194ZM530.657 123.833C530.003 123.139 529.019 125.838 530.193 127.099C530.661 127.603 533.595 126.969 530.657 123.833ZM522.596 142.412C521.81 142.504 520.413 144.099 520.876 144.747C521.817 146.07 521.029 147.941 522.417 149.041C520.447 151.065 524.186 153.354 523.937 151.702C523.811 150.841 523.626 149.99 523.451 149.137C524.381 148.267 524.654 149.153 523.534 143.715C523.43 143.196 523.762 142.282 522.596 142.412ZM507.195 150.9C509.069 150.417 508.226 149.249 507.811 148.359C505.266 145.538 505.417 151.355 507.195 150.9ZM529.974 151.307C530.605 148.011 531.634 143.434 530.713 143.622C527.496 144.267 528.16 144.675 528.3 153.115C529.072 152.721 529.789 152.246 529.964 151.309L529.974 151.307ZM521.959 163.2C522.71 161.682 519.029 160.439 519.114 158.218C519.735 142.606 512.174 162.202 521.305 164.132C521.454 164.166 521.79 163.556 521.961 163.21L521.959 163.2ZM507.707 173.929C509.596 174.653 511.534 175.754 511.297 173.998C510.66 169.205 508.708 170.373 507.707 173.929ZM500.868 169.123C501.792 169.9 502.22 169.681 502.32 169.002C502.808 165.59 502.696 165.478 502.227 165.411C501.29 165.286 500.018 167.295 500.868 169.123ZM507.919 161.663C511.094 161.239 510.061 159.13 510.802 164.108C511.117 166.236 514.377 166.223 514.185 168.687C514.046 170.501 513.755 172.312 513.566 174.125C513.459 175.161 514.848 174.746 515.019 174.349C516.851 170.053 520.399 163.9 516.113 164.028C511.18 164.171 514.883 154.23 510.651 159.694C508.775 158.652 507.661 158.285 507.921 161.673L507.919 161.663ZM505.897 153.381C505.895 153.26 505.247 153.103 504.898 153.085C504.489 153.068 503.586 154.929 505.035 158.152C508.449 159.098 505.958 155.058 505.886 153.373L505.897 153.381ZM488.972 160.418C490.582 159.546 490.643 157.584 490.04 156.392C488.05 152.485 491.068 156.175 493.083 154.346C493.719 153.763 494.011 152.795 494.661 152.23C495.205 151.755 496.546 152.091 496.099 150.688C495.747 149.594 496.35 147.929 492.914 146.917C489.809 145.996 493.943 141.333 489.347 143.56C488.767 142.496 487.667 141.812 485.865 142.017C486.895 148.528 486.225 148.477 488.727 147.595C488.961 149.443 488.471 148.983 486.957 156.149C489.355 157.381 487.93 161.004 488.975 160.438L488.972 160.418ZM481.622 155.817C481.776 155.941 482.056 156.195 482.074 156.182C486.91 151.635 479.825 150.96 481.622 155.817ZM470.712 161.334C472.615 161.182 472.206 159.711 472.112 157.737C471.465 158.261 470.793 158.759 470.206 159.333C469.204 160.307 470.08 161.378 470.712 161.334ZM472.292 157.5C473.902 157.239 476.075 157.23 474.709 154.074C474.696 154.168 474.563 154.222 474.266 154.266C472.437 154.547 471.55 154.698 472.292 157.5ZM474.882 141.368C475.408 144.261 473.082 146.401 473.011 149.199C472.935 152.587 474.629 153.631 474.692 154.036C475.329 154.185 475.988 154.289 476.612 154.48C480.15 155.546 478.068 151.919 479.307 151.633C480.371 151.389 480.833 150.858 480.86 149.827C480.906 148.009 481.14 146.168 480.927 144.377C480.744 142.865 482.514 140.969 480.857 140.07C479.977 139.59 474.561 139.709 474.873 141.37L474.882 141.368ZM498.45 134.752C497.284 140.422 495.77 144.68 497.756 146.048C499.917 148.267 499.581 147.424 500.552 146.221C502.427 143.899 500.016 141.867 499.678 135.078C499.657 134.574 498.681 133.673 498.459 134.75L498.45 134.752ZM524.358 128.493C524.484 129.355 524.712 130.218 524.693 131.065C524.552 135.888 525.818 133.849 527.724 134.326C528.523 134.527 529.173 135.476 530.111 134.767C531.348 133.851 530.237 132.772 530.317 131.812C530.533 129.253 527.51 129.171 527.118 127.068C526.721 124.934 525.598 126.642 524.781 126.902C524.685 126.259 524.598 125.614 524.472 124.977C523.872 122.006 519.423 132.937 524.358 128.493ZM518.436 94.3623C518.076 95.1189 517.662 95.8648 517.379 96.6581C517.165 97.2662 517.231 98.0265 516.442 98.2713C512.259 99.5797 511.814 106.48 512.633 107.236C516.2 110.542 513.359 116.892 516.369 118.805C517.422 116.876 516.767 115.063 517.348 112.946C517.928 110.818 517.249 108.481 515.587 106.659C513.049 103.878 515.445 101.288 515.955 101.632C516.986 102.329 516.063 104.296 516.399 105.363C516.882 106.851 519.956 107.268 519.31 105.109C517.711 99.8298 524.264 101.943 518.428 94.374L518.436 94.3623ZM521.668 115.464C523.894 111.381 524.11 111.952 520.75 110.356C519.875 112.365 518.87 114.163 521.668 115.464ZM525.32 104.679C525.559 103.141 521.694 100.214 522.95 107.243C523.007 107.558 523.515 107.781 523.818 108.051C524.348 106.939 525.126 105.852 525.31 104.68L525.32 104.679ZM529.858 114.394C530.055 111.726 529.921 108.64 527.145 108.687C523.691 111.774 529.7 116.659 529.858 114.394ZM525.229 121.14C526.704 121.034 527.665 116.479 524.925 117.058C524.719 121.019 524.567 121.189 525.229 121.14ZM522.518 119.142C522.946 117.804 522.534 116.71 521.758 115.682C519.84 118.774 521.964 120.848 522.518 119.142ZM491.186 113.498C492.897 112.283 490.398 111.171 488.833 112.014C489.393 113.864 488.935 115.095 491.186 113.498ZM481.535 124.661C482.769 122.222 485.74 123.471 485.578 120.451C483.064 118.021 477.649 121.952 481.535 124.661ZM521.156 85.8293C521.945 86.4789 521.99 86.2267 523.059 81.5911C523.465 79.8507 522.453 79.8209 520.254 77.8928C518.873 81.2027 519.806 84.7225 521.156 85.8293ZM520.266 77.5145C522.412 75.1126 521.163 73.9469 520.29 73.7803C519.752 73.6746 519.866 73.8571 520.266 77.5145ZM522.66 46.0813C526.41 45.8578 522.376 40.2076 521.611 46.404C519.555 48.9114 521.338 50.6104 523.314 53.4936C528.072 50.6988 518.536 46.3218 522.66 46.0813ZM537.571 55.1028C535.152 52.3 534.637 54.4464 534.761 54.5153C538.103 56.4088 537.542 56.1752 537.571 55.1028ZM527.258 55.0035C526.855 55.2494 526.708 55.0016 527.236 57.8532C527.586 59.7817 530.336 56.0607 527.258 55.0035ZM523.241 53.761C520.553 56.983 516.937 60.4649 522.171 59.85C524.709 59.5519 523.913 57.4606 523.241 53.761ZM513.409 60.5668C514.443 62.5134 515.914 58.4656 513.571 57.6001C512.781 58.4549 512.913 59.6302 513.409 60.5668ZM503.452 42.1695C501.155 41.3871 501.547 46.0624 504.223 47.3654C505.928 48.1941 505.781 49.288 505.582 50.6555C505.35 52.2323 506.763 52.2908 507.609 52.9198C507.124 53.3839 506.411 53.7674 506.258 54.3237C505.908 55.5865 506.393 57.0231 505.471 58.2169C505.034 58.774 507.63 60.0305 507.881 58.7247C508.262 56.7955 509.397 54.7601 507.609 52.9198C509.908 51.3033 507.492 45.9486 507.644 41.0731C507.665 40.5204 506.696 39.8833 506.273 39.7365C505.1 39.3194 506.55 43.223 503.452 42.1695ZM511.18 36.4776C512.975 38.9771 514.067 32.8434 511.02 33.7522C510.661 34.346 509.857 34.624 511.18 36.4776ZM506.643 22.1271C506.195 22.6252 505.94 23.2915 505.542 23.8414C503.853 26.1808 503.831 26.1745 505.869 28.9451C508.831 33.113 506.092 26.8719 509.12 25.6921C510.21 25.2603 507.415 21.2856 506.645 22.137L506.643 22.1271Z" fill="#98E0FF"/>
<path d="M586.591 29.8607C585.678 31.8863 582.258 28.3909 581.851 31.4632C581.758 32.1304 581.7 32.8728 581.911 33.4748C582.542 35.2709 580.651 34.9333 580.115 35.7318C579.029 37.3621 578.88 35.702 575.478 32.3559C574.907 31.7887 572.661 31.79 573.07 33.1997C573.381 34.3017 573.551 33.2749 573.833 35.6121C573.195 35.5144 572.007 35.4659 571.997 35.295C571.708 32.5321 568.769 32.3542 567.51 30.5704C566.018 28.4529 566.309 34.4778 563.571 34.5683C562.005 34.6189 562.951 33.2784 562.941 32.6094C562.922 29.3707 560.682 31.0275 560.294 28.2725C560.253 28.0462 558.49 26.9027 557.822 28.762C555.884 34.1549 558.414 38.7976 555.176 38.4301C553.661 38.2579 551.031 37.9934 550.859 36.988C550.578 35.2706 553.456 37.1873 553.767 34.0819C553.979 31.9496 553.152 31.5916 547.346 28.9462C545.794 28.2321 545.433 31.1737 544.917 32.4159C544.755 32.8112 544.096 32.7681 543.987 32.2798C543.334 29.4612 541.29 28.6736 541.243 29.0886C541.793 28.4197 542.935 28.0497 542.719 26.971C542.36 25.2169 542.666 23.3217 541.573 21.7213C541.008 20.909 542.414 20.9282 542.795 21.1232C546.952 23.3058 546.325 25.7877 549.65 22.2673C550.894 20.9438 552.56 21.2206 553.851 20.3256C554.365 19.968 555.052 20.2803 555.611 20.8395C561.421 26.5331 567.348 19.6539 567.983 24.7219C568.472 28.5868 570.21 28.0273 570.279 27.903C571.041 26.2807 571.071 22.6977 573.566 24.3995C578.682 27.8918 585.579 26.6396 585.004 26.4391C585.233 26.6923 587.284 28.3627 586.604 29.8786L586.591 29.8607Z" fill="#98E0FF"/>
<path d="M547.374 173.252C545.961 170.846 547.6 168.841 548.358 166.803C548.879 165.417 550.384 168 551.045 166.6C551.903 164.777 553.494 163.97 555.051 163.026C556.615 162.072 556.135 163.399 557.577 165.017C557.831 164.737 558.216 164.505 558.318 164.171C562.07 153.042 561.247 165.022 558.065 169.106C558.217 169.271 558.387 169.423 558.503 169.616C558.574 169.725 558.262 177.242 558.182 177.307C555.829 179.015 555.956 176.969 555.515 174.092C555.501 171.33 555.247 170.38 555.796 169.874C555.179 170.392 555.501 171.33 555.515 174.092C554.566 174.63 553.667 175.443 552.647 175.649C550.932 176.001 553.004 178.511 550.88 178.399C549.393 181.911 549.423 182.414 547.819 183.152C547.757 183.143 546.995 176.482 547.374 173.252Z" fill="#98E0FF"/>
<path d="M482.771 33.1081C482.625 35.218 486.483 35.4731 488.397 34.5971C489.916 33.8944 490.825 42.0331 490.67 43.6975C490.583 44.6787 489.31 43.9342 489.326 43.4637C489.403 40.3601 486.482 39.7216 484.814 38.0933C484.271 37.5619 481.445 39.4671 481.253 39.5834C479.388 39.3324 479.68 30.2443 479.583 25.0074C479.547 23.2454 483.337 24.8035 482.773 33.118L482.771 33.1081Z" fill="#98E0FF"/>
<path d="M584.99 26.4213C585.053 26.4303 585.125 26.4374 585.188 26.4464C585.16 26.4616 585.099 26.4625 584.99 26.4213Z" fill="#98E0FF"/>
<path d="M593.054 37.5803C593.112 37.6206 593.158 37.6528 593.226 37.6913C593.186 37.7494 593.146 37.8075 593.105 37.8657C593.063 37.8021 593.029 37.727 592.997 37.6617C593.023 37.6366 593.037 37.6035 593.054 37.5803Z" fill="#98E0FF"/>
<path d="M586.859 26.8036C586.533 26.4663 585.799 26.5081 585.188 26.4462C585.398 26.3166 584.29 25.0239 586.711 23.8627C588.236 23.1386 587.735 27.1526 589.951 24.4637C590.275 24.0693 590.374 22.8216 591.241 23.6804C592.404 24.8211 595.429 28.2154 594.876 29.8709C594.032 32.392 594.869 35.3197 593.034 37.5839C586.647 33.5296 592.687 32.931 586.839 26.8071L586.859 26.8036Z" fill="#98E0FF"/>
<path d="M536.653 150.481C536.664 150.54 536.673 150.589 536.684 150.648C536.64 150.687 536.594 150.715 536.549 150.744C536.52 150.698 536.482 150.654 536.451 150.599C536.525 150.555 536.588 150.513 536.652 150.471L536.653 150.481Z" fill="#98E0FF"/>
<path d="M542.512 145.464C542.475 143.417 543.492 140.174 545.167 141.394C546.058 142.045 546.439 143.867 547.526 143.527C549.43 142.927 550.624 144.916 552.318 144.507C552.715 148.205 552.557 146.1 545.153 147.586C542.183 148.186 544.201 151.804 541.331 150.831C538.147 149.752 538.726 149.19 536.665 150.489C534.562 141.033 542.586 149.343 542.521 145.462L542.512 145.464Z" fill="#98E0FF"/>
<path d="M559.534 50.0079C560.198 49.5215 560.945 49.6603 561.178 50.3294C563.118 55.811 565.083 53.3098 563.66 56.5562C563.194 57.6267 560.107 58.4818 559.818 55.8817C559.667 54.5471 559.316 53.2287 559.053 51.8941C559.189 51.7475 559.304 51.5946 559.407 51.4336C558.787 52.217 557.417 52.7908 557.321 54.5564C557.279 55.2755 558.103 59.7603 556.264 60.1552C556.057 60.1927 555.632 60.0871 555.633 60.0361C555.625 58.0353 553.958 56.915 553.119 55.3701C551.19 51.8581 554.374 51.8187 553.674 47.7381C553.413 46.2408 558.254 47.6588 559.544 50.0061L559.534 50.0079Z" fill="#98E0FF"/>
<path d="M562.929 185.765C562.261 186.567 557.275 184.291 561.874 175.366C566.691 175.416 566.324 181.683 562.929 185.765Z" fill="#98E0FF"/>
<path d="M550.703 89.4803C549.997 90.6858 548.765 90.2284 548.599 90.2078C548.42 87.5978 550.441 86.6923 550.26 84.4079C550.245 84.2684 555.363 81.1133 555.394 83.3538C555.437 86.5577 555.517 89.6837 554.682 89.7335C553.052 89.8261 552.657 86.1374 550.705 89.4901L550.703 89.4803Z" fill="#98E0FF"/>
<path d="M544.882 124.371C546.821 128.948 541.612 133.289 546.388 132.33C547.486 132.11 546.662 135.238 542.285 134.305C536.28 133.027 545.034 124.425 544.884 124.381L544.882 124.371Z" fill="#98E0FF"/>
<path d="M565.591 165.382C565.664 165.338 565.72 165.307 565.793 165.264C565.804 165.323 565.813 165.372 565.823 165.431L565.591 165.382Z" fill="#98E0FF"/>
<path d="M534.922 114.461C534.484 111.603 535.218 108.929 533.448 105.673C532.946 104.758 533.294 104.715 536.764 103.394C537.373 103.161 537.669 103.341 537.583 103.814C537.361 105.003 536.583 118.855 534.922 114.461Z" fill="#98E0FF"/>
<path d="M474.392 111.963C474.572 109.318 474.168 106.587 475.616 104.149C474.54 101.641 476.416 100.721 477.894 99.5682C477.882 100.343 478.829 103.321 475.67 112.453C475.564 112.767 474.306 113.168 474.392 111.963Z" fill="#98E0FF"/>
<path d="M478.177 99.3339C478.079 99.4126 477.992 99.4895 477.894 99.5681C477.898 99.3642 477.959 99.3124 478.177 99.3339Z" fill="#98E0FF"/>
<path d="M542.329 109.579C542.958 115.787 540.865 116.797 541.687 120.266C542.122 122.098 539.544 119.933 539.637 118.544C540.108 111.456 538.623 114.582 540.748 109.378C540.833 109.18 542.243 108.771 542.319 109.581L542.329 109.579Z" fill="#98E0FF"/>
<path d="M592.713 51.4949C595.154 52.678 595.391 53.1432 593.94 55.4495C593.15 56.7006 593.146 58.5816 591.334 59.124C591.334 59.124 588.432 49.4062 592.712 51.4851L592.713 51.4949Z" fill="#98E0FF"/>
<path d="M590.349 45.5822C590.422 43.8005 590.515 42.0153 590.607 40.23C592.277 40.3029 592.447 38.8289 593.103 37.856C596.436 43.786 590.158 50.4648 590.349 45.5822Z" fill="#98E0FF"/>
<path d="M481.191 50.8863C481.197 50.9766 481.174 50.9605 481.191 50.8863V50.8863Z" fill="#98E0FF"/>
<path d="M481.778 50.6477C481.33 50.5868 481.213 50.7808 481.191 50.8864C481.18 50.8273 481.186 50.7451 481.144 50.5697C480.988 49.8255 478.993 39.2824 481.253 39.5835C483.22 42.9157 483.541 50.8968 481.778 50.6477Z" fill="#98E0FF"/>
<path d="M561.305 188.855C561.936 192.501 561.53 192.615 560.939 193.332C560.805 193.489 555.912 191.562 557.099 187.464C560.466 186.923 560.919 186.618 561.315 188.853L561.305 188.855Z" fill="#98E0FF"/>
<path d="M545.409 50.3566C544.043 45.2383 546.197 42.9974 544.507 39.7878C544.475 39.7225 544.648 39.5588 544.719 39.4444C549.441 42.1647 546.282 53.6536 545.401 50.3682L545.409 50.3566Z" fill="#98E0FF"/>
<path d="M535.626 163.575C533.095 161.504 533.364 159.066 534.315 158.091C536.16 157.837 534.329 160.741 537.337 160.683C538.805 160.65 539.254 161.168 538.291 162.857C537.155 164.832 537.202 164.864 535.638 163.583L535.626 163.575Z" fill="#98E0FF"/>
<path d="M546.378 111.954C545.479 110.806 545.427 110.745 547.369 108.847C548.215 108.023 547.64 107.151 547.845 106.321C548.47 103.769 552.379 106.494 549.787 108.896C546.43 112.016 548.662 112.444 547.872 112.852C547.548 113.022 546.763 112.393 546.388 111.952L546.378 111.954Z" fill="#98E0FF"/>
<path d="M563.669 77.4303C563.767 77.5752 563.628 77.8748 563.608 78.102C562.221 77.5713 562.681 77.8639 562.05 76.8503C556.991 70.6542 561.394 65.4032 562.311 71.5178C562.615 73.5258 562.505 75.6089 563.669 77.4303Z" fill="#98E0FF"/>
<path d="M597.156 79.3798C594.019 76.9918 591.951 75.3446 594.414 73.7388C594.988 73.3705 595.944 73.2071 596.044 73.8699C596.531 77.2268 600.888 76.202 599.122 79.6835C598.329 81.2504 597.593 79.7171 597.156 79.3798Z" fill="#98E0FF"/>
<path d="M534.369 152.115C534.38 152.174 534.371 152.237 534.373 152.308C534.235 152.384 534.335 152.264 534.369 152.115Z" fill="#98E0FF"/>
<path d="M539.722 156.073C537.375 155.35 537.342 153.598 536.003 155.406C535.555 156.016 534.743 155.35 534.583 154.749C534.381 153.973 534.41 153.124 534.373 152.308C534.549 152.215 535.084 151.802 536.551 150.754C538.587 153.799 540.846 151.57 539.712 156.074L539.722 156.073Z" fill="#98E0FF"/>
<path d="M536.144 88.1087C536.831 88.9801 537.238 90.4408 538.839 89.4082C539.116 89.978 540.555 91.0784 538.926 95.8766C536.157 94.7838 534.227 91.0992 536.144 88.1087Z" fill="#98E0FF"/>
<path d="M539.103 41.4293C539.18 41.0698 540.289 40.1775 540.406 40.9386C540.722 42.9548 541.007 44.9762 541.273 47.0013C541.336 47.4575 540.075 48.0117 539.655 47.6609C538.756 46.9094 537.518 45.5183 538.469 44.6545C539.437 43.7165 538.87 42.4981 539.103 41.4293Z" fill="#98E0FF"/>
<path d="M591.571 59.1419C591.571 59.1419 591.552 59.2063 591.548 59.2376C591.48 59.1991 591.423 59.1687 591.347 59.1419L591.573 59.1517L591.571 59.1419Z" fill="#98E0FF"/>
<path d="M591.536 59.2295C597.222 61.8866 594.752 65.0182 594.331 64.6577C589.789 60.8579 590.767 61.9913 591.536 59.2295Z" fill="#98E0FF"/>
<path d="M552.463 144.297C552.484 144.355 552.493 144.404 552.523 144.459C552.456 144.482 552.387 144.494 552.32 144.517C552.313 144.477 552.308 144.448 552.301 144.408C552.356 144.378 552.41 144.338 552.454 144.299L552.463 144.297Z" fill="#98E0FF"/>
<path d="M552.26 139.984C551.574 138.838 552.084 137.729 553.066 137.592C555.681 137.219 554.85 142.777 552.462 144.288C551.825 142.909 553.136 141.451 552.26 139.984Z" fill="#98E0FF"/>
<path d="M572.14 179.346C572.14 179.346 572.194 179.306 572.259 179.274C572.239 179.328 572.203 179.355 572.14 179.346Z" fill="#98E0FF"/>
<path d="M572.909 172.438C573.953 172.198 574.678 176.192 574.716 176.46C574.899 177.636 572.791 178.954 572.26 179.274C572.574 178.597 570.413 173.023 572.909 172.438Z" fill="#98E0FF"/>
<path d="M569.164 150.524C567.924 148.788 570.979 146.749 569.999 144.264C570.887 144.113 571.807 143.753 572.672 143.871C573.985 144.049 573.002 144.847 572.791 145.252C569.813 150.965 569.924 150.569 569.164 150.524Z" fill="#98E0FF"/>
<path d="M574.213 69.113C571.706 63.6429 571.678 63.9936 572.514 63.3945C573.82 62.5273 575.949 64.8444 575.279 68.6553C575.224 68.9702 574.31 69.3089 574.211 69.1032L574.213 69.113Z" fill="#98E0FF"/>
<path d="M574.005 74.2936C573.738 73.4375 575.094 73.9638 575.317 74.5229C576.157 76.5758 576.481 75.0536 573.803 81.6886C571.355 78.6165 574.781 76.7749 574.005 74.2936Z" fill="#98E0FF"/>
<path d="M555.046 156.899C554.168 156.153 553.704 155.892 552.969 154.42C551.458 151.411 559.42 150.931 555.046 156.899Z" fill="#98E0FF"/>
<path d="M495.278 62.0292C495.949 63.5436 493.196 62.4275 492.261 64.6705C492.084 65.1499 491.54 65.8483 490.583 64.8329C488.244 62.3609 491.604 62.3404 491.995 61.1312C492.374 59.9748 494.948 61.276 495.278 62.0292Z" fill="#98E0FF"/>
<path d="M491.506 53.6786C492.027 58.0051 491.047 57.7562 489.364 55.6529C489.427 55.2147 489.54 54.2693 489.432 53.9535C488.158 50.0177 490.976 49.3637 491.494 53.6705L491.506 53.6786Z" fill="#98E0FF"/>
<path d="M489.353 55.645C489.353 55.645 489.353 55.645 489.354 55.6549C489.31 55.9169 489.295 56.001 489.353 55.645Z" fill="#98E0FF"/>
<path d="M595.496 25.0018C598.801 24.5644 598.666 29.3656 598.457 29.6679C597.962 30.3573 593.809 25.2267 595.496 25.0018Z" fill="#98E0FF"/>
<path d="M544.994 124.371C544.994 124.371 544.997 124.391 545.011 124.409C544.798 124.356 544.827 124.351 544.994 124.371Z" fill="#98E0FF"/>
<path d="M545.161 119.92C545.313 118.795 546.435 119.434 546.52 119.734C546.937 121.193 546.806 122.823 547.936 124.061C548.813 125.03 545.682 124.47 545.002 124.36C544.056 122.844 544.98 121.386 545.169 119.908L545.161 119.92Z" fill="#98E0FF"/>
<path d="M489.325 55.8839C489.387 55.4457 487.917 57.5928 487.835 57.5874C487.453 57.5551 486.882 57.2115 486.782 56.8841C484.696 49.5895 486.591 52.081 489.325 55.8839Z" fill="#98E0FF"/>
<path d="M482.276 71.9208C483.592 74.6903 479.057 79.5486 480.064 72.109C480.345 70.0152 481.996 71.3313 482.276 71.9208Z" fill="#98E0FF"/>
<path d="M490.234 69.1243C490.306 70.5849 486.322 70.1903 487.219 66.9071C487.534 65.7829 488.905 66.0015 489.751 65.9597C489.975 67.3622 490.185 68.2388 490.232 69.1145L490.234 69.1243Z" fill="#98E0FF"/>
<path d="M540.644 165.744C542.721 165.763 542.05 166.881 541.384 170.101C540.123 169.812 540.571 170.209 539.435 168.768C539.42 168.852 539.421 168.913 539.408 168.956C539.412 168.976 539.413 168.986 539.407 169.007C539.407 169.007 539.407 169.007 539.405 168.997C539.39 168.969 539.367 168.953 539.352 168.926C539.376 168.891 539.394 168.877 539.404 168.876C539.434 168.26 539.74 165.745 540.646 165.753L540.644 165.744Z" fill="#98E0FF"/>
<path d="M478.008 99.0799C475.046 94.5766 480.737 88.3601 478.008 99.0799V99.0799Z" fill="#98E0FF"/>
<path d="M477.948 99.3044C477.965 99.2302 477.982 99.1559 478.009 99.0799C478.064 99.1613 478.121 99.2526 478.177 99.334L477.948 99.3044Z" fill="#98E0FF"/>
<path d="M599.362 48.8752C597.827 47.3042 598.135 45.0834 599.109 44.3985C601.887 45.2051 600.646 50.177 599.362 48.8752Z" fill="#98E0FF"/>
<path d="M568.407 54.3222C567.479 54.0232 566.855 51.5348 568.528 50.3975C568.711 50.3949 569.524 50.2269 569.422 50.8959C568.962 54.0182 568.893 54.478 568.396 54.3142L568.407 54.3222Z" fill="#98E0FF"/>
<path d="M567.555 73.6452C569.163 74.0445 568.785 78.5139 566.558 77.6681C566.537 76.8792 566.268 73.33 567.555 73.6452Z" fill="#98E0FF"/>
<path d="M527.606 181.089C527.862 180.372 528.446 180.734 529.218 180.959C530.927 186.005 526.596 183.925 527.606 181.089Z" fill="#98E0FF"/>
<path d="M557.1 147.165C557.734 150.546 553.19 149.867 554.801 146.82C555.075 146.313 556.985 146.586 557.1 147.165Z" fill="#98E0FF"/>
<path d="M482.207 57.4302C481.718 54.3479 481.476 53.2942 481.839 53.2791C483.633 53.1973 484.748 58.8897 482.207 57.4302Z" fill="#98E0FF"/>
<path d="M544.324 161.102C540.453 160.27 543.957 156.564 544.396 158.253C544.769 159.689 545.424 161.339 544.324 161.102Z" fill="#98E0FF"/>
<path d="M581.389 38.6615C582.301 39.7664 582.272 38.9891 581.878 41.5202C581.531 41.4611 581.193 41.3904 580.701 41.3071C580.68 38.8411 580.541 39.5879 581.391 38.6714L581.389 38.6615Z" fill="#98E0FF"/>
<path d="M595.07 68.4468C595.522 67.4094 596.14 66.2808 596.718 67.1718C597.891 68.9815 593.992 70.9089 595.07 68.4468Z" fill="#98E0FF"/>
<path d="M573.438 49.9532C572.909 48.1589 574.79 47.5431 575.352 48.7928C575.724 49.6095 575.228 50.5735 574.383 50.5643C574.067 50.5607 573.752 50.1707 573.438 49.9532Z" fill="#98E0FF"/>
<path d="M573.935 81.8576C573.935 81.8576 573.885 81.9176 573.859 81.9426C573.852 81.9032 573.825 81.8675 573.819 81.8379L573.747 81.8308C573.747 81.8308 573.776 81.7645 573.79 81.7315C573.785 81.7019 573.783 81.6921 573.804 81.6984C573.818 81.7163 573.833 81.744 573.846 81.7619C573.871 81.7879 573.898 81.8237 573.928 81.8791L573.935 81.8576Z" fill="#98E0FF"/>
<path d="M573.859 81.9425C574.045 82.4068 574.516 83.3783 574.566 83.6538C574.877 85.254 570.621 85.5999 573.859 81.9425Z" fill="#98E0FF"/>
<path d="M548.883 51.5757C548.944 50.6803 549.399 50.7807 550.105 51.313C551.638 53.3724 548.6 56.2311 548.883 51.5757Z" fill="#98E0FF"/>
<path d="M588.935 138.448C588.74 137.762 587.369 137.32 588.417 136.489C588.879 136.121 591.094 136.623 590.247 138.617C589.735 139.828 589.37 138.603 588.935 138.448Z" fill="#98E0FF"/>
<path d="M588.45 146.413C589.078 146.513 588.978 149.041 587.191 150.28C585.955 150.027 587.237 146.227 588.45 146.413Z" fill="#98E0FF"/>
<path d="M544.028 88.9336C543.577 88.6902 543.341 87.3915 544.633 85.9983C545 86.0029 545.62 85.8903 545.688 86.0406C546.209 87.1758 545.145 89.5439 544.028 88.9336Z" fill="#98E0FF"/>
<path d="M548.893 118.47C550.282 117.333 551.084 119.231 550.683 119.822C549.717 121.217 547.847 119.818 548.893 118.47Z" fill="#98E0FF"/>
<path d="M564.711 159.138C562.226 160.341 562.133 155.124 564.235 156.348C565.111 156.86 565.125 157.162 564.96 157.487C565.02 157.425 565.08 157.364 565.148 157.29C568.435 155.352 569.302 154.25 568.12 159.048C567.712 160.718 566.67 162.258 568.258 161.879C568.386 161.856 570.881 160.091 570.573 162.038C570.02 165.594 569.075 163.245 565.793 165.264C564.876 160.104 564.535 158.672 564.661 158.019C564.528 158.297 564.471 158.653 564.713 159.148L564.711 159.138Z" fill="#98E0FF"/>
<path d="M559.813 153.431C560.249 154.043 559.863 156.278 558.377 156.325C557.845 155.466 559.117 152.45 559.813 153.431Z" fill="#98E0FF"/>
<path d="M538.183 128.342C537.721 127.867 538.248 125.952 539.004 125.53C539.272 125.38 539.695 125.526 539.95 125.531C540.673 127.666 538.596 128.765 538.185 128.351L538.183 128.342Z" fill="#98E0FF"/>
<path d="M565.821 165.421C565.737 165.518 565.671 165.601 565.587 165.697C565.54 165.441 565.548 165.369 565.821 165.421Z" fill="#98E0FF"/>
<path d="M565.75 167.883C565.612 169.585 561.532 170.458 565.587 165.697C565.657 166.03 565.838 166.688 565.75 167.883Z" fill="#98E0FF"/>
<path d="M490.609 95.7658C491.25 96.6658 491.961 97.2787 491.071 97.8062C490.915 97.8956 488.744 98.31 489.101 96.3039C489.412 94.601 489.746 95.211 490.6 95.7676L490.609 95.7658Z" fill="#98E0FF"/>
<path d="M538.135 170.956C537.642 170.649 536.543 170.472 537.118 168.264C537.476 166.878 538.466 167.796 539.34 168.918C539.105 169.245 538.377 171.115 538.125 170.958L538.135 170.956Z" fill="#98E0FF"/>
</svg>